<svg xmlns="http://www.w3.org/2000/svg" width="63" height="63" viewBox="0 0 63 63">
  <path id="Combined_Shape" data-name="Combined Shape" d="M55.977,63a1,1,0,0,1-1-1V47.321H44.023V62a1,1,0,0,1-1,1H37a1,1,0,0,1-1-1V28.917a1,1,0,0,1,1-1H62a1,1,0,0,1,1,1V62a1,1,0,0,1-1,1ZM1,63a1,1,0,0,1-1-1V1A1,1,0,0,1,1,0H30a1,1,0,0,1,1,1V62a1,1,0,0,1-1,1ZM19.375,40.277v5.855a1,1,0,0,0,1,1h5.75a1,1,0,0,0,1-1V40.277a1,1,0,0,0-1-1h-5.75A1,1,0,0,0,19.375,40.277Zm-15.5,0v5.855a1,1,0,0,0,1,1h5.75a1,1,0,0,0,1-1V40.277a1,1,0,0,0-1-1H4.875A1,1,0,0,0,3.875,40.277Zm15.5-15.711v5.855a1,1,0,0,0,1,1h5.75a1,1,0,0,0,1-1V24.566a1,1,0,0,0-1-1h-5.75A1,1,0,0,0,19.375,24.566Zm-15.5,0v5.855a1,1,0,0,0,1,1h5.75a1,1,0,0,0,1-1V24.566a1,1,0,0,0-1-1H4.875A1,1,0,0,0,3.875,24.566Zm15.5-15.71v5.855a1,1,0,0,0,1,1h5.75a1,1,0,0,0,1-1V8.855a1,1,0,0,0-1-1h-5.75A1,1,0,0,0,19.375,8.855Zm-15.5,0v5.855a1,1,0,0,0,1,1h5.75a1,1,0,0,0,1-1V8.855a1,1,0,0,0-1-1H4.875A1,1,0,0,0,3.875,8.855ZM37,24.036a1,1,0,0,1-1-1V21a1,1,0,0,1,1-1H62a1,1,0,0,1,1,1v2.036a1,1,0,0,1-1,1Z" fill="#fff"/>
</svg>
