<svg xmlns="http://www.w3.org/2000/svg" xmlns:xlink="http://www.w3.org/1999/xlink" version="1.1" x="0px" y="0px" viewBox="0 0 150 52.161" style="enable-background:new 0 0 14172.39 4928.22;" xml:space="preserve" width="150" height="52.161"><g id="ALUMINUM"/><g id="type"><g><path d="M57.36 15.705c-1.092 -1.134 -2.265 -1.821 -3.072 -1.821h-0.729v-0.63h0.606c0.282 0 3.597 0.135 3.921 0.135c0.525 0 2.058 -0.135 2.382 -0.135h0.645l15.381 16.773v-13.23c0 -2.103 -0.927 -2.913 -3.27 -2.913h-0.687v-0.63h0.726c0.081 0 3.552 0.135 3.834 0.135c0.402 0 2.706 -0.135 3.15 -0.135h0.444l0.039 0.63c-2.142 0.162 -2.709 0.729 -2.709 2.589v20.916h-0.726L58.935 17.367v15.066c0 3.159 0.726 4.011 3.393 4.011h0.687v0.675h-0.768c-0.564 0 -3.351 -0.135 -3.996 -0.135c-0.363 0 -2.952 0.135 -3.516 0.135h-0.648v-0.675c2.709 -0.246 3.276 -0.69 3.276 -2.634V15.705z"/><path d="M85.203 15.948c0 -1.578 -0.609 -2.064 -2.508 -2.064h-0.606v-0.63h1.575c1.092 0 6.993 0.135 7.035 0.135c0.846 0 6.453 -0.135 7.659 -0.135h1.617l0.081 5.199h-0.627c-0.123 -2.712 -1.35 -3.804 -4.173 -3.804h-5.646v9.192h4.881c1.896 0 2.946 -0.891 3.228 -2.796l0.72 0.042v7.257h-0.681c-0.321 -2.268 -1.491 -3.159 -4.317 -3.159H89.568v8.382c0 1.38 0.687 2.067 2.058 2.067h4.032c2.619 0 4.518 -1.176 5.649 -3.606h0.729l-1.698 5.091c-1.173 0 -6.735 -0.135 -8.589 -0.135c-1.251 0 -7.275 0.093 -8.649 0.135H82.047v-0.675h0.648c1.899 -0.042 2.508 -0.528 2.508 -2.106V15.948z"/><path d="M124.014 37.434h-1.131l-4.611 -12.585L113.541 37.434h-1.092l-7.884 -21.123c-0.606 -1.62 -1.173 -2.265 -2.226 -2.466v-0.591h0.687c0.444 0 2.67 0.135 3.195 0.135c0.444 0 2.748 -0.135 3.234 -0.135h0.729v0.63c-1.17 0.042 -1.659 0.366 -1.659 1.011c0 0.366 0.123 0.891 0.324 1.458l5.541 14.973l3.153 -8.538L115.485 17.04c-0.891 -2.469 -1.659 -3.114 -3.6 -3.156v-0.63h0.648c0.567 0 3.477 0.135 4.167 0.135c0.564 0 3.477 -0.135 4.122 -0.135h0.972v0.63h-0.972c-1.332 0 -1.98 0.324 -1.98 1.011c0 0.366 0.162 1.011 0.405 1.659l5.379 14.892l4.245 -12.624c0.525 -1.62 0.768 -2.67 0.768 -3.318c0 -1.134 -0.564 -1.62 -1.818 -1.62h-0.729v-0.63h0.204c0.564 0 1.98 0.135 2.829 0.135c0.402 0 1.977 -0.135 2.745 -0.135h0.285v0.63c-1.011 0.285 -1.536 1.011 -2.34 3.48L124.014 37.434z"/><path d="M133.335 31.578c0.645 1.575 1.209 2.301 2.295 3.108c1.371 1.05 3.183 1.575 5.199 1.575c3.465 0 5.802 -1.818 5.802 -4.443c0 -1.938 -1.128 -2.991 -5.304 -4.968c-4.047 -1.941 -5.052 -2.907 -5.898 -3.717c-1.248 -1.332 -1.77 -2.544 -1.77 -4.158c0 -3.717 3.018 -6.177 7.59 -6.177c1.374 0 2.874 0.201 4.491 0.603c0.648 0.159 1.296 0.24 1.659 0.24c0.324 0 0.486 -0.081 0.606 -0.348h0.696l0.081 5.088h-0.573c-0.363 -1.212 -0.606 -1.737 -1.134 -2.4c-1.134 -1.332 -2.913 -2.058 -5.199 -2.058c-2.901 0 -4.797 1.374 -4.797 3.432c0 1.776 1.089 2.787 4.959 4.563c4.956 2.301 7.962 4.362 7.962 8.16c0 4.362 -3.57 7.305 -8.847 7.305c-1.329 0 -2.661 -0.159 -4.272 -0.522c-0.564 -0.12 -1.167 -0.201 -1.449 -0.201c-0.483 0 -0.642 0.081 -0.966 0.453h-0.684l-0.081 -0.567c-0.324 -1.86 -0.687 -3.594 -0.972 -4.773L133.335 31.578z"/></g><g><path d="M13.953 26.079c0 1.77 -1.434 3.201 -3.201 3.201c-1.77 0 -3.201 -1.434 -3.201 -3.201c0 -1.77 1.434 -3.201 3.201 -3.201C12.519 22.878 13.953 24.312 13.953 26.079zM26.079 22.878c-1.77 0 -3.201 1.434 -3.201 3.201c0 1.77 1.434 3.201 3.201 3.201c1.77 0 3.201 -1.434 3.201 -3.201C29.283 24.312 27.849 22.878 26.079 22.878zM52.161 26.079c0 14.403 -11.676 26.079 -26.079 26.079C11.676 52.161 0 40.485 0 26.079S11.676 0 26.079 0C40.485 0 52.161 11.676 52.161 26.079zM17.955 26.079c0 -3.978 -3.225 -7.206 -7.206 -7.206c-3.978 0 -7.206 3.225 -7.206 7.206c0 3.978 3.225 7.206 7.206 7.206c2.091 0 3.201 -1.359 3.201 -1.359v1.242h4.002V26.079zM33.285 26.079c0 -3.978 -3.225 -7.206 -7.206 -7.206c-1.941 0 -3.201 1.053 -3.201 1.053l0 -4.572h-4.002v10.725c0 3.978 3.225 7.206 7.206 7.206C30.06 33.285 33.285 30.06 33.285 26.079zM48.555 26.997h-4.077c-0.396 1.32 -1.617 2.286 -3.066 2.286c-1.77 0 -3.201 -1.434 -3.201 -3.201c0 -1.77 1.434 -3.201 3.201 -3.201c1.449 0 2.673 0.963 3.066 2.286h4.077c-0.45 -3.546 -3.477 -6.288 -7.146 -6.288c-3.978 0 -7.206 3.225 -7.206 7.206c0 3.978 3.225 7.206 7.206 7.206C45.078 33.285 48.105 30.543 48.555 26.997z"/></g></g></svg>